<svg width="60" height="60" viewBox="0 0 60 60" fill="none" xmlns="http://www.w3.org/2000/svg">
<g filter="url(#filter0_d_153_2402)">
<circle cx="30" cy="26" r="26" fill="#4D5E77"/>
<path d="M38 35V33C38 31.9391 37.5786 30.9217 36.8284 30.1716C36.0783 29.4214 35.0609 29 34 29H26C24.9391 29 23.9217 29.4214 23.1716 30.1716C22.4214 30.9217 22 31.9391 22 33V35" stroke="#FAFAFA" stroke-width="2" stroke-linecap="round" stroke-linejoin="round"/>
<path d="M30 25C32.2091 25 34 23.2091 34 21C34 18.7909 32.2091 17 30 17C27.7909 17 26 18.7909 26 21C26 23.2091 27.7909 25 30 25Z" stroke="#FAFAFA" stroke-width="2" stroke-linecap="round" stroke-linejoin="round"/>
</g>
<defs>
<filter id="filter0_d_153_2402" x="0" y="0" width="60" height="60" filterUnits="userSpaceOnUse" color-interpolation-filters="sRGB">
<feFlood flood-opacity="0" result="BackgroundImageFix"/>
<feColorMatrix in="SourceAlpha" type="matrix" values="0 0 0 0 0 0 0 0 0 0 0 0 0 0 0 0 0 0 127 0" result="hardAlpha"/>
<feOffset dy="4"/>
<feGaussianBlur stdDeviation="2"/>
<feComposite in2="hardAlpha" operator="out"/>
<feColorMatrix type="matrix" values="0 0 0 0 0 0 0 0 0 0 0 0 0 0 0 0 0 0 0.25 0"/>
<feBlend mode="normal" in2="BackgroundImageFix" result="effect1_dropShadow_153_2402"/>
<feBlend mode="normal" in="SourceGraphic" in2="effect1_dropShadow_153_2402" result="shape"/>
</filter>
</defs>
</svg>
